<svg width="25" height="24" viewBox="0 0 25 24" fill="none" xmlns="http://www.w3.org/2000/svg">
<path d="M9.875 21.0002V13.6002C9.875 13.0402 9.875 12.7601 9.98399 12.5462C10.0799 12.3581 10.2328 12.2051 10.421 12.1092C10.6349 12.0002 10.9149 12.0002 11.475 12.0002H14.275C14.8351 12.0002 15.1151 12.0002 15.329 12.1092C15.5172 12.2051 15.6701 12.3581 15.766 12.5462C15.875 12.7601 15.875 13.0402 15.875 13.6002V21.0002M11.8927 2.76424L5.11039 8.03937C4.65702 8.39199 4.43034 8.5683 4.26703 8.7891C4.12237 8.98469 4.0146 9.20503 3.94903 9.4393C3.875 9.70376 3.875 9.99094 3.875 10.5653V17.8002C3.875 18.9203 3.875 19.4804 4.09299 19.9082C4.28473 20.2845 4.59069 20.5905 4.96702 20.7822C5.39484 21.0002 5.95489 21.0002 7.075 21.0002H18.675C19.7951 21.0002 20.3552 21.0002 20.783 20.7822C21.1593 20.5905 21.4653 20.2845 21.657 19.9082C21.875 19.4804 21.875 18.9203 21.875 17.8002V10.5653C21.875 9.99094 21.875 9.70376 21.801 9.4393C21.7354 9.20503 21.6276 8.98469 21.483 8.7891C21.3197 8.5683 21.093 8.39199 20.6396 8.03937L13.8573 2.76424C13.506 2.49099 13.3303 2.35436 13.1363 2.30184C12.9652 2.2555 12.7848 2.2555 12.6137 2.30184C12.4197 2.35436 12.244 2.49099 11.8927 2.76424Z" stroke="#C6C6C6" stroke-width="2" stroke-linecap="round" stroke-linejoin="round"/>
</svg>
